<?xml version="1.0" standalone="no"?>
<!DOCTYPE svg PUBLIC "-//W3C//DTD SVG 20010904//EN"
 "http://www.w3.org/TR/2001/REC-SVG-20010904/DTD/svg10.dtd">
<svg version="1.0" xmlns="http://www.w3.org/2000/svg"
 width="1280.000000pt" height="1280.000000pt" viewBox="0 0 1280.000000 1280.000000"
 preserveAspectRatio="xMidYMid meet">
<metadata>
Created by potrace 1.16, written by Peter Selinger 2001-2019
</metadata>
<g transform="translate(0.000000,1280.000000) scale(0.100000,-0.100000)">
<path fill="#8247e5" d="M6285 11319 c-66 -6 -120 -18 -146 -35 -7 -4 -25 -8 -40 -9 -33 -3
-194 -109 -216 -142 -8 -13 -20 -23 -27 -23 -11 0 -32 -29 -68 -94 -10 -17
-18 -26 -18 -21 -1 6 -7 -3 -15 -20 -8 -16 -19 -37 -24 -45 -15 -26 -29 -64
-35 -95 -3 -16 -12 -59 -21 -95 -8 -36 -13 -76 -9 -89 3 -13 1 -27 -4 -30 -6
-4 -6 -26 0 -61 5 -30 11 -73 13 -96 3 -23 18 -68 34 -101 16 -32 33 -71 36
-85 7 -29 70 -106 149 -183 47 -47 122 -95 148 -95 6 0 16 -7 22 -15 11 -15
113 -45 152 -45 12 0 24 -5 26 -10 5 -16 202 -15 283 2 39 7 109 33 157 56 69
33 104 59 177 131 50 48 91 95 91 102 0 8 9 22 20 32 11 9 20 26 20 37 0 11 5
20 10 20 6 0 10 11 10 24 0 14 5 28 10 31 6 3 10 16 10 29 0 12 3 26 8 30 9 9
32 139 32 186 1 78 -8 167 -19 188 -6 12 -9 22 -5 22 3 0 -1 11 -9 24 -9 13
-18 34 -20 47 -4 29 -32 78 -74 132 -18 23 -33 46 -33 50 0 10 -67 77 -78 77
-4 0 -21 14 -39 30 -18 17 -37 30 -42 30 -6 0 -11 4 -11 9 0 5 -13 12 -30 16
-16 4 -30 11 -30 16 0 5 -7 9 -15 9 -9 0 -26 7 -39 15 -13 8 -60 21 -104 27
-45 7 -82 15 -82 19 0 8 -49 7 -155 -2z"/>
<path d="M8334 11226 l-49 -44 0 -77 c0 -74 1 -78 33 -106 18 -16 41 -29 52
-29 10 0 22 -4 25 -10 9 -15 72 -12 103 4 72 37 115 132 86 188 -8 15 -13 31
-12 35 2 4 -4 17 -12 29 -17 23 -61 40 -131 49 -44 5 -49 3 -95 -39z"/>
<path d="M4599 11216 c-2 -2 -35 -6 -72 -9 -37 -2 -71 -7 -74 -11 -3 -3 -16
-6 -27 -6 -12 0 -32 -7 -44 -16 -12 -8 -22 -12 -22 -8 0 3 -10 0 -22 -8 -13
-8 -35 -18 -50 -22 -15 -3 -35 -17 -44 -31 -9 -14 -20 -25 -26 -25 -29 0 -158
-168 -158 -206 0 -6 -6 -17 -14 -23 -7 -6 -19 -48 -26 -94 -7 -45 -16 -86 -20
-92 -4 -5 -4 -37 0 -70 5 -33 10 -79 13 -102 2 -23 12 -54 21 -68 9 -14 14
-25 11 -25 -4 0 2 -12 13 -27 10 -16 17 -33 15 -39 -2 -6 6 -19 17 -29 11 -10
20 -24 20 -30 0 -11 20 -29 118 -112 15 -12 35 -29 45 -38 9 -8 22 -15 28 -15
6 0 23 -6 37 -14 44 -23 137 -46 196 -50 31 -1 59 -5 62 -8 3 -4 18 -2 34 2
16 4 30 6 33 4 2 -3 15 0 29 5 14 5 41 12 60 15 41 6 130 49 148 71 7 8 20 15
29 15 17 0 81 64 111 110 8 12 24 35 36 49 41 51 82 175 89 268 2 32 4 60 5
63 5 13 -3 77 -11 91 -5 9 -11 34 -13 56 -5 37 -39 112 -82 179 -28 45 -146
150 -191 169 -21 9 -50 23 -64 31 -14 7 -59 19 -100 25 -41 7 -78 16 -83 20
-11 10 -20 11 -27 5z"/>
<path d="M9126 10953 c-2 -3 -20 -6 -38 -8 -48 -4 -70 -15 -119 -60 -66 -60
-95 -116 -90 -172 1 -13 -3 -23 -9 -23 -13 0 -8 -61 8 -100 19 -45 25 -65 24
-72 -2 -11 87 -88 103 -88 8 0 15 -4 15 -10 0 -14 74 -31 144 -34 74 -3 116
16 186 83 59 57 66 72 75 144 4 31 11 57 15 57 12 0 -15 94 -34 121 -9 13 -16
31 -16 40 0 32 -98 99 -146 99 -12 0 -24 4 -26 9 -3 9 -84 22 -92 14z"/>
<path d="M7977 10433 c-1 -1 -30 -4 -64 -6 -34 -3 -72 -12 -85 -21 -12 -9 -32
-16 -45 -16 -12 0 -25 -4 -28 -10 -3 -5 -15 -10 -25 -10 -11 0 -52 -31 -91
-70 -40 -38 -76 -70 -81 -70 -5 0 -14 -13 -19 -30 -6 -16 -15 -30 -20 -30 -5
0 -9 -5 -9 -11 0 -5 -11 -35 -25 -65 -14 -30 -28 -80 -31 -112 -4 -31 -10 -61
-14 -67 -8 -10 -7 -27 4 -144 5 -46 42 -144 77 -201 5 -8 13 -24 18 -35 5 -11
30 -38 57 -60 26 -22 55 -48 63 -57 9 -10 21 -18 28 -18 7 0 13 -5 13 -10 0
-6 12 -15 28 -20 15 -6 36 -14 47 -19 92 -41 256 -58 342 -35 32 9 65 17 73
19 8 2 16 4 18 5 1 2 5 3 10 4 20 5 110 56 121 70 8 9 19 16 25 16 6 1 29 24
51 52 22 28 45 56 51 62 17 18 44 73 44 91 0 8 5 15 10 15 6 0 10 9 10 20 0
11 4 28 10 38 26 47 33 224 12 293 -6 19 -16 52 -23 74 -24 79 -174 265 -214
265 -8 0 -15 4 -15 9 0 5 -16 12 -35 15 -19 4 -38 13 -43 21 -4 9 -38 19 -85
27 -42 6 -77 15 -77 19 0 6 -77 8 -83 2z"/>
<path d="M3114 10394 c-27 -5 -103 -30 -124 -41 -14 -7 -30 -13 -36 -13 -6 0
-38 -28 -71 -63 -59 -63 -103 -136 -103 -173 0 -10 -7 -38 -15 -61 -11 -33
-12 -54 -4 -96 5 -30 9 -59 7 -64 -1 -4 3 -24 10 -43 7 -19 12 -36 12 -38 0
-1 15 -23 35 -49 19 -25 35 -49 35 -53 0 -4 12 -13 28 -21 15 -8 35 -24 45
-36 10 -13 27 -23 38 -23 10 0 19 -4 19 -9 0 -5 24 -12 52 -15 29 -4 58 -12
65 -18 12 -10 82 -7 171 6 57 9 222 122 222 152 0 7 6 19 13 26 40 40 74 238
55 318 -10 39 -37 98 -48 105 -6 4 -8 10 -5 15 5 8 -87 110 -100 110 -3 0 -13
7 -21 15 -9 8 -24 15 -35 15 -10 0 -19 5 -19 10 0 6 -11 10 -24 10 -13 0 -26
4 -28 9 -3 8 -152 29 -174 25z"/>
<path d="M9925 10148 c-22 -5 -47 -10 -55 -12 -37 -8 -90 -38 -108 -61 -11
-14 -22 -25 -25 -25 -13 0 -74 -69 -89 -100 -24 -51 -49 -155 -48 -198 0 -20
1 -46 1 -57 0 -34 22 -98 46 -137 13 -21 23 -42 23 -48 0 -16 62 -76 87 -84
11 -4 24 -13 27 -21 3 -8 14 -15 25 -15 10 0 21 -6 24 -13 5 -13 125 -37 192
-40 37 -1 91 10 116 24 12 6 19 6 19 0 0 -16 92 51 153 113 31 31 57 66 57 76
0 10 5 22 10 25 6 3 10 16 10 28 0 12 7 41 15 64 24 69 13 178 -24 247 -17 31
-31 62 -31 69 0 18 -75 85 -118 105 -20 9 -41 22 -47 28 -9 11 -177 45 -206
43 -8 -1 -32 -5 -54 -11z"/>
<path d="M5106 9591 c-68 -21 -141 -96 -150 -154 -3 -18 -10 -55 -14 -83 -11
-64 7 -114 63 -176 59 -64 66 -68 157 -83 81 -13 84 -13 133 12 98 49 145 103
145 167 0 12 5 27 11 33 10 10 8 72 -3 113 -9 34 -51 106 -72 123 -29 24 -83
47 -112 47 -12 0 -26 4 -29 10 -8 14 -71 9 -129 -9z"/>
<path d="M5955 9592 c-16 -9 -31 -20 -33 -24 -2 -5 -9 -8 -16 -8 -13 0 -38
-45 -55 -99 -13 -42 -5 -96 20 -133 11 -14 19 -33 19 -41 0 -24 132 -65 185
-58 27 4 99 55 119 86 10 15 19 54 21 95 4 62 2 75 -20 109 -13 22 -33 42 -45
46 -11 3 -20 11 -20 16 0 5 -13 9 -29 9 -17 0 -33 5 -36 10 -10 16 -77 11
-110 -8z"/>
<path d="M2229 9416 c-2 -2 -22 -7 -43 -10 -22 -4 -45 -11 -52 -17 -6 -5 -16
-8 -21 -7 -14 5 -80 -56 -97 -91 -9 -17 -20 -31 -25 -31 -11 0 -21 -48 -25
-116 -2 -28 -6 -55 -8 -60 -9 -15 43 -112 81 -151 62 -64 75 -71 169 -84 76
-11 96 -10 119 1 15 7 31 13 34 12 4 -1 15 8 24 18 10 11 24 20 32 20 33 0 93
94 93 146 0 13 5 24 11 24 18 0 5 128 -17 176 -24 53 -76 111 -111 126 -16 6
-50 17 -78 23 -27 7 -57 15 -66 19 -8 4 -17 5 -20 2z"/>
<path d="M4028 9365 c-3 -3 -31 -8 -64 -11 -67 -6 -88 -14 -163 -63 -49 -33
-121 -97 -121 -108 0 -2 -7 -11 -15 -19 -8 -9 -15 -24 -15 -34 0 -10 -4 -22
-10 -25 -5 -3 -10 -19 -10 -36 0 -16 -4 -29 -9 -29 -10 0 -22 -84 -22 -156 -1
-52 40 -162 73 -200 10 -11 18 -23 18 -27 0 -18 83 -86 140 -115 66 -32 168
-58 201 -49 10 3 19 1 21 -3 4 -11 64 3 147 31 50 18 76 36 124 83 102 103
111 118 122 195 4 28 11 53 16 57 24 15 -1 203 -35 254 -13 19 -27 46 -31 60
-10 31 -73 92 -118 113 -19 9 -39 23 -46 31 -6 7 -37 17 -67 21 -30 4 -71 13
-89 21 -39 16 -40 16 -47 9z"/>
<path d="M8921 9118 c-18 -5 -44 -16 -56 -24 -12 -8 -24 -11 -28 -8 -3 4 -23
-8 -44 -25 -21 -17 -43 -31 -49 -31 -6 0 -20 -12 -30 -27 -10 -16 -22 -33 -28
-39 -51 -55 -74 -102 -82 -172 -3 -34 -11 -62 -16 -62 -5 0 -7 -21 -4 -47 4
-46 7 -63 21 -127 7 -34 83 -156 97 -156 5 0 7 -4 4 -8 -14 -23 135 -108 204
-117 30 -4 60 -12 67 -17 11 -9 58 -6 156 8 23 4 56 17 74 30 17 13 36 24 41
24 4 0 19 11 32 25 13 14 31 25 40 25 16 0 100 128 100 153 0 7 4 17 9 23 10
12 33 173 27 199 -2 11 -10 40 -17 65 -7 25 -13 51 -15 57 -3 19 -74 113 -85
113 -5 0 -9 7 -9 15 0 7 -8 19 -17 24 -10 6 -13 11 -8 11 9 0 -83 47 -140 70
-48 21 -194 31 -244 18z"/>
<path d="M10579 8915 c-3 -2 -16 -6 -31 -9 -14 -2 -36 -9 -47 -16 -14 -7 -21
-7 -21 0 0 6 -40 -10 -88 -35 -82 -44 -116 -70 -193 -155 -36 -39 -89 -135
-89 -161 0 -10 -4 -19 -9 -21 -4 -1 -15 -48 -23 -103 -13 -84 -14 -112 -3
-175 15 -95 13 -89 57 -179 20 -42 54 -94 76 -116 50 -51 130 -119 145 -123 7
-2 35 -14 62 -27 113 -52 297 -64 410 -27 76 25 164 74 205 115 112 109 134
144 178 272 24 69 35 214 21 270 -6 22 -11 49 -12 60 -3 29 -28 85 -54 124
-12 18 -20 37 -18 42 7 11 -108 125 -145 144 -17 9 -30 22 -30 30 0 9 -10 15
-25 15 -14 0 -25 4 -25 8 0 4 -21 13 -47 20 -27 8 -55 17 -64 22 -9 4 -40 11
-70 14 -113 12 -156 15 -160 11z"/>
<path d="M1721 8548 c-45 -29 -85 -124 -73 -174 8 -36 65 -104 86 -104 8 0 18
-4 21 -10 17 -28 146 5 175 44 8 12 20 49 26 84 9 55 9 66 -6 85 -10 12 -20
31 -24 43 -13 43 -153 64 -205 32z"/>
<path d="M2878 8475 c-3 -3 -39 -7 -81 -9 -55 -3 -94 -13 -144 -34 -37 -16
-77 -33 -89 -36 -11 -3 -51 -38 -88 -76 -38 -39 -71 -70 -75 -70 -9 0 -51 -86
-51 -105 0 -8 -3 -15 -8 -15 -11 0 -33 -77 -39 -135 -3 -27 -8 -53 -12 -58 -4
-4 -3 -38 1 -75 5 -37 10 -78 12 -92 1 -14 8 -35 14 -47 7 -12 12 -27 12 -34
0 -7 11 -27 25 -45 14 -18 25 -40 25 -49 0 -16 30 -49 131 -140 52 -48 211
-106 295 -109 29 -1 55 -4 59 -7 4 -5 87 5 120 15 6 2 31 9 57 16 26 7 53 18
59 26 6 8 17 14 25 14 37 0 170 122 198 181 5 10 13 19 17 19 4 0 10 14 14 30
4 17 11 30 16 30 5 0 9 10 9 23 0 13 4 27 9 33 11 12 33 152 26 164 -3 5 -1
12 5 15 6 4 9 14 6 23 -8 27 -17 74 -21 107 -1 17 -8 43 -14 58 -6 16 -11 30
-11 32 0 18 -82 136 -124 180 -51 52 -133 105 -163 105 -7 0 -16 6 -19 14 -3
9 -35 18 -87 26 -45 6 -87 16 -93 21 -6 5 -13 7 -16 4z"/>
<path d="M9369 7776 c-21 -6 -45 -19 -55 -28 -11 -9 -22 -16 -26 -15 -7 2 -34
-20 -54 -45 -15 -19 -34 -77 -34 -104 0 -13 -5 -24 -11 -24 -16 0 -4 -87 20
-142 20 -47 75 -110 107 -122 24 -9 110 -27 149 -31 35 -4 141 46 168 78 41
50 50 71 63 146 12 70 12 84 -2 118 -28 67 -90 139 -131 151 -92 27 -148 32
-194 18z"/>
<path d="M10515 7241 c-27 -7 -59 -14 -70 -16 -11 -1 -37 -10 -57 -19 -21 -9
-40 -16 -43 -16 -3 0 -24 -12 -48 -27 -23 -14 -43 -25 -44 -22 -2 5 -140 -128
-169 -164 -12 -15 -32 -47 -44 -72 -12 -25 -26 -45 -31 -45 -5 0 -9 -9 -9 -20
0 -11 -4 -28 -9 -38 -16 -31 -44 -164 -44 -209 0 -24 -4 -43 -9 -43 -5 0 -7
-8 -4 -17 3 -10 8 -38 11 -63 3 -25 7 -56 10 -70 3 -14 7 -34 9 -45 7 -32 43
-112 55 -120 6 -3 9 -10 6 -15 -6 -11 59 -108 96 -141 16 -14 26 -29 23 -32
-3 -3 8 -13 24 -21 17 -9 37 -25 45 -36 14 -21 126 -80 151 -80 8 0 19 -7 23
-15 5 -8 38 -19 83 -26 41 -6 80 -15 86 -20 14 -11 212 -3 247 10 15 6 27 9
27 6 0 -2 16 3 35 11 19 8 36 14 37 13 23 -7 207 116 253 169 17 19 40 46 53
60 12 14 22 31 22 38 0 8 4 14 10 14 13 0 58 99 79 175 47 170 42 349 -13 450
-9 17 -16 37 -17 45 0 8 -18 42 -40 75 -21 33 -49 75 -60 93 -12 17 -24 32
-28 32 -4 0 -29 20 -57 45 -27 24 -78 59 -114 77 -36 18 -68 37 -71 41 -3 5
-39 13 -80 19 -41 6 -77 15 -80 20 -10 15 -189 14 -244 -1z"/>
<path d="M1990 6968 c-19 -5 -53 -14 -75 -20 -69 -18 -98 -30 -160 -67 -105
-61 -161 -110 -191 -164 -8 -15 -19 -25 -24 -22 -5 3 -12 -5 -16 -17 -3 -13
-15 -31 -25 -41 -11 -10 -19 -26 -19 -37 0 -10 -3 -20 -8 -22 -12 -5 -50 -130
-57 -191 -4 -31 -11 -59 -15 -62 -4 -3 -6 -26 -3 -52 2 -27 5 -73 7 -103 2
-31 8 -66 15 -78 6 -12 9 -22 5 -22 -3 0 1 -11 9 -24 9 -13 18 -35 19 -49 2
-14 9 -31 15 -38 6 -8 18 -30 28 -49 9 -19 29 -47 43 -62 14 -16 22 -28 17
-28 -13 0 76 -79 96 -85 11 -4 19 -13 19 -21 0 -8 12 -20 28 -27 15 -6 29 -14
32 -17 11 -11 72 -40 85 -40 7 0 15 -6 18 -14 3 -8 29 -16 64 -21 32 -3 76
-12 98 -20 52 -17 203 -12 273 8 28 9 52 13 52 10 0 -3 7 0 15 7 8 7 15 10 15
7 0 -17 164 80 209 123 29 27 56 50 62 50 5 0 9 4 9 10 0 5 14 23 30 40 17 17
30 37 30 45 0 8 4 15 9 15 5 0 12 13 16 29 3 16 13 32 21 35 8 3 14 14 14 25
0 11 5 23 10 26 6 3 10 19 10 34 0 16 7 48 16 72 8 24 16 69 17 99 1 30 5 57
8 60 4 3 3 28 -2 55 -5 28 -12 72 -15 99 -4 27 -20 77 -37 110 -17 34 -32 66
-33 73 -6 37 -158 213 -184 213 -5 0 -10 6 -10 13 0 12 -124 77 -146 77 -7 0
-17 7 -24 15 -7 8 -24 15 -39 15 -15 0 -54 7 -86 17 -65 18 -125 22 -167 11
-16 -4 -28 -2 -28 3 0 10 -3 10 -50 -3z"/>
<path d="M9440 6866 c-46 -14 -75 -49 -100 -122 -16 -46 -18 -67 -11 -86 5
-14 8 -28 5 -30 -2 -3 6 -16 19 -30 13 -14 22 -29 20 -34 -1 -5 14 -20 35 -32
28 -19 51 -24 102 -25 114 -1 171 47 187 159 8 49 7 75 0 89 -6 11 -10 23 -9
27 1 6 -21 26 -79 70 -12 10 -41 19 -63 22 -49 6 -61 5 -106 -8z"/>
<path d="M3238 6331 c-41 -9 -117 -67 -129 -97 -5 -15 -11 -54 -13 -87 -3 -51
0 -66 20 -96 36 -54 70 -75 143 -87 58 -9 70 -8 104 9 21 11 46 31 55 46 9 14
19 28 22 31 12 11 30 79 30 111 0 19 -7 45 -16 57 -9 13 -14 26 -11 29 11 11
-47 53 -100 73 -56 21 -61 22 -105 11z"/>
<path d="M3265 5563 c-22 -7 -50 -25 -62 -38 -12 -14 -27 -25 -33 -25 -5 0
-10 -5 -10 -10 0 -6 -11 -22 -24 -35 -24 -24 -32 -51 -41 -146 -4 -48 -1 -65
20 -107 14 -28 36 -59 48 -69 13 -10 24 -22 24 -28 2 -13 130 -54 171 -55 18
0 41 4 51 10 10 5 30 11 45 14 39 7 97 54 110 88 6 15 14 28 18 28 4 0 8 15 8
34 0 19 4 36 10 38 18 6 12 119 -8 153 -4 6 -7 17 -9 25 -3 22 -90 94 -132
111 -13 5 -49 11 -80 12 -31 1 -58 4 -61 7 -3 3 -23 0 -45 -7z"/>
<path d="M9800 5469 c-98 -22 -155 -44 -225 -86 -68 -41 -185 -187 -185 -230
0 -7 -4 -13 -10 -13 -5 0 -10 -11 -10 -25 0 -14 -4 -25 -9 -25 -9 0 -16 -31
-27 -135 -7 -68 -7 -65 1 -115 4 -25 8 -54 10 -65 1 -11 7 -33 14 -48 6 -16
11 -33 11 -38 0 -6 14 -30 30 -55 17 -24 28 -44 24 -44 -3 0 28 -34 69 -75 42
-41 83 -75 91 -75 8 0 16 -3 18 -7 8 -19 119 -62 176 -69 34 -3 65 -10 67 -14
5 -7 18 -7 143 4 29 3 81 18 118 36 36 17 69 28 74 25 4 -3 45 31 89 76 45 45
81 77 81 73 0 -13 45 82 76 161 8 21 32 143 37 185 1 14 -3 49 -10 79 -7 30
-10 58 -7 63 6 10 -75 176 -103 212 -29 36 -162 144 -186 151 -12 4 -31 10
-42 15 -86 35 -244 56 -315 39z"/>
<path d="M2068 5074 c-2 -1 -28 -5 -58 -8 -59 -6 -112 -23 -175 -55 -21 -12
-44 -21 -50 -21 -6 0 -38 -28 -71 -62 -32 -33 -71 -73 -85 -87 -14 -15 -30
-38 -34 -51 -4 -14 -11 -27 -14 -30 -30 -23 -79 -274 -66 -333 4 -18 9 -52 12
-77 5 -44 21 -82 56 -129 9 -13 17 -30 17 -38 0 -22 49 -86 87 -113 19 -14 53
-42 76 -62 23 -21 57 -41 75 -44 17 -3 32 -10 32 -15 0 -5 13 -9 29 -9 17 0
32 -4 35 -9 13 -20 189 -34 255 -20 26 5 58 11 74 13 15 2 34 9 42 16 8 7 15
10 15 7 0 -7 66 27 125 65 22 14 58 47 80 74 22 27 47 57 56 67 13 15 28 45
70 142 26 61 42 256 23 287 -4 6 -8 27 -9 48 -2 21 -20 73 -40 116 -30 63 -54
95 -119 158 -44 43 -97 85 -116 93 -19 8 -53 23 -75 33 -22 10 -67 22 -100 26
-33 3 -64 9 -70 12 -10 6 -72 11 -77 6z"/>
<path d="M3701 4583 c-19 -3 -44 -11 -57 -20 -13 -8 -27 -12 -33 -9 -10 6 -84
-45 -138 -97 -18 -17 -33 -27 -33 -21 0 17 -49 -75 -69 -134 -12 -32 -23 -84
-25 -115 -2 -30 -7 -60 -10 -66 -3 -5 -1 -22 5 -38 6 -15 10 -29 9 -31 -8 -13
71 -173 92 -186 10 -6 18 -16 18 -22 0 -11 94 -74 111 -74 5 0 9 -6 9 -13 0
-9 27 -18 83 -26 45 -7 87 -17 93 -22 7 -6 22 -6 38 1 15 5 30 9 34 8 39 -8
173 47 223 93 16 15 30 25 32 22 4 -4 57 72 57 82 0 3 9 15 19 27 12 12 23 43
27 77 3 31 11 62 16 68 13 16 12 111 -1 145 -5 14 -8 28 -5 31 8 7 -28 80 -54
108 -13 15 -24 34 -26 43 -4 28 -59 77 -116 103 -30 15 -57 29 -60 33 -3 4
-41 13 -85 20 -107 16 -115 17 -154 13z"/>
<path d="M10925 4570 c-10 -11 -26 -20 -36 -20 -44 0 -71 -155 -37 -209 22
-35 69 -61 109 -61 15 0 29 -5 31 -10 6 -18 70 10 103 44 59 60 70 123 34 191
-25 46 -37 55 -99 72 -64 17 -84 16 -105 -7z"/>
<path d="M8613 4319 c-18 -5 -35 -14 -38 -19 -3 -6 -17 -10 -30 -10 -44 0
-175 -110 -175 -146 0 -8 -5 -13 -11 -11 -30 6 -71 -142 -73 -262 -1 -80 1
-90 39 -165 42 -84 110 -162 151 -172 13 -3 24 -10 24 -15 0 -15 39 -30 103
-40 34 -6 67 -14 73 -20 7 -6 36 -6 79 0 38 6 71 8 74 7 8 -5 76 31 132 68 61
41 127 112 134 147 4 16 11 29 16 29 5 0 9 13 9 28 0 15 6 34 13 40 8 9 12 48
12 120 0 92 -3 114 -23 154 -13 26 -22 49 -20 51 3 4 -79 105 -102 125 -8 7
-28 20 -45 28 -16 8 -37 18 -45 23 -24 14 -63 29 -91 35 -52 11 -175 14 -206
5z"/>
<path d="M10442 3979 c-20 -10 -48 -29 -61 -43 -14 -14 -30 -26 -37 -26 -25 0
-66 -93 -65 -147 1 -13 -4 -23 -10 -23 -16 0 -4 -77 24 -147 26 -64 65 -108
105 -119 12 -3 22 -10 22 -15 0 -5 13 -9 28 -9 15 0 33 -5 38 -10 16 -16 135
-13 179 5 37 16 76 49 114 100 33 43 40 61 49 128 11 85 5 123 -30 185 -32 56
-47 71 -99 96 -84 43 -194 53 -257 25z"/>
<path d="M7441 3705 c-92 -53 -128 -99 -130 -167 -1 -16 -5 -28 -11 -28 -17 0
-11 -76 10 -124 10 -25 16 -46 12 -46 -4 0 0 -6 8 -13 8 -7 20 -21 26 -32 6
-11 24 -27 40 -35 16 -8 31 -18 34 -21 3 -3 19 -9 35 -12 17 -3 46 -10 65 -14
38 -10 105 2 130 22 8 7 20 11 26 8 6 -2 23 11 38 29 14 18 35 42 45 53 17 17
30 66 45 169 7 48 -40 125 -121 197 -17 16 -130 39 -185 39 -13 0 -43 -11 -67
-25z"/>
<path d="M6643 3574 c-18 -8 -33 -18 -33 -23 0 -5 -8 -12 -18 -15 -30 -10 -52
-60 -57 -131 -8 -103 28 -151 136 -185 56 -17 64 -17 105 -3 25 8 48 22 51 29
3 8 11 14 19 14 16 0 28 20 49 84 19 55 15 85 -16 146 -38 72 -48 77 -174 95
-16 2 -45 -3 -62 -11z"/>
<path d="M4695 3532 c-16 -2 -34 -7 -40 -12 -5 -4 -35 -15 -67 -25 -31 -9 -62
-22 -68 -30 -7 -8 -18 -15 -25 -15 -17 0 -155 -130 -155 -146 0 -7 -8 -19 -18
-26 -19 -13 -62 -115 -62 -146 0 -10 -5 -23 -11 -29 -7 -7 -13 -42 -14 -80 -2
-37 -5 -72 -6 -78 -6 -21 13 -124 25 -141 8 -10 12 -23 9 -30 -6 -16 21 -64
85 -150 50 -68 113 -124 140 -124 7 0 12 -4 12 -10 0 -5 7 -10 15 -10 8 0 15
-4 15 -8 0 -5 26 -17 58 -26 31 -10 73 -23 92 -29 64 -19 198 -15 269 10 36
12 68 20 72 17 4 -2 10 0 14 6 3 6 21 16 38 24 18 8 52 33 77 57 24 24 53 49
64 54 10 6 35 41 55 80 20 38 41 75 47 82 7 7 15 41 19 75 4 35 12 71 17 82 6
10 9 35 9 55 -1 20 -2 45 -2 55 0 11 -4 27 -10 37 -6 11 -6 20 1 24 9 6 -22
98 -41 121 -5 6 -10 20 -12 32 -3 21 -92 134 -139 178 -42 38 -158 93 -211
100 -29 4 -55 11 -58 16 -6 9 -141 16 -194 10z"/>
<path d="M2700 3479 c-25 -4 -56 -11 -70 -14 -14 -3 -36 -8 -49 -11 -13 -3
-37 -16 -53 -29 -16 -14 -33 -25 -37 -25 -4 0 -13 -10 -20 -23 -7 -13 -25 -31
-40 -40 -15 -9 -32 -26 -38 -39 -22 -49 -32 -74 -37 -98 -2 -14 -9 -43 -15
-65 -13 -49 -5 -166 15 -203 7 -15 14 -32 14 -38 0 -6 7 -17 15 -24 8 -7 15
-20 15 -29 0 -48 154 -148 250 -163 36 -6 68 -14 73 -18 7 -6 146 11 155 20 1
1 5 3 10 4 36 9 86 41 124 80 25 25 50 46 55 46 5 0 19 21 30 48 71 163 72
276 5 407 -42 83 -83 124 -162 161 -8 4 -18 12 -21 16 -3 5 -39 14 -80 20 -41
6 -78 14 -84 18 -5 3 -30 3 -55 -1z"/>
<path d="M9535 3256 c-27 -8 -52 -13 -54 -10 -2 2 -16 -5 -31 -16 -16 -11 -32
-20 -37 -20 -5 0 -23 -15 -39 -32 -16 -18 -44 -44 -61 -58 -18 -14 -35 -37
-39 -52 -3 -16 -10 -28 -15 -28 -5 0 -9 -11 -9 -24 0 -13 -7 -43 -16 -67 -11
-31 -14 -68 -11 -125 3 -68 9 -92 37 -145 18 -35 44 -79 58 -97 23 -30 38 -41
102 -74 14 -7 30 -18 35 -25 10 -12 137 -36 190 -37 17 0 44 3 60 7 17 4 43 9
59 13 46 10 97 44 158 105 59 60 76 90 99 174 16 60 19 190 6 225 -6 14 -11
27 -11 30 -1 3 -11 21 -24 41 -12 20 -22 42 -22 49 0 18 -70 82 -115 105 -22
11 -44 25 -50 31 -9 11 -108 32 -185 40 -19 2 -57 -3 -85 -10z"/>
<path d="M6290 2909 c-30 -10 -77 -23 -104 -29 -26 -5 -60 -19 -73 -30 -14
-11 -31 -20 -38 -20 -6 0 -20 -9 -30 -20 -10 -11 -24 -20 -31 -20 -7 0 -23
-13 -36 -30 -12 -16 -28 -30 -35 -30 -7 0 -20 -12 -30 -27 -24 -37 -28 -43
-58 -77 -14 -16 -25 -35 -25 -42 0 -7 -6 -17 -13 -21 -35 -22 -101 -288 -93
-378 8 -83 20 -153 33 -185 44 -110 85 -191 105 -203 10 -7 18 -16 18 -21 0
-14 129 -134 151 -141 10 -4 19 -11 19 -16 0 -5 5 -9 11 -9 18 0 99 -40 99
-49 0 -5 26 -12 58 -16 31 -3 76 -13 99 -20 23 -8 67 -13 97 -11 31 2 59 0 61
-4 4 -7 95 13 113 24 5 3 30 7 56 11 27 3 60 13 75 23 14 10 44 27 65 37 38
17 81 51 151 120 16 16 33 29 36 28 3 -1 19 25 35 57 16 33 34 59 39 60 10 0
22 32 59 155 18 60 36 188 32 230 -9 100 -21 156 -43 203 -14 29 -26 58 -27
65 -8 48 -157 237 -188 237 -4 0 -17 11 -30 24 -20 20 -41 33 -110 67 -10 5
-25 9 -33 9 -9 0 -18 6 -21 14 -3 8 -29 16 -65 20 -33 4 -76 13 -97 20 -24 8
-59 11 -100 6 -34 -3 -66 -3 -70 1 -4 4 -32 -2 -62 -12z"/>
<path d="M8065 2779 c-27 -10 -58 -19 -68 -19 -10 0 -43 -17 -74 -37 -31 -21
-67 -45 -81 -53 -52 -31 -151 -169 -171 -240 -7 -25 -19 -65 -26 -90 -31 -98
-17 -286 27 -365 10 -16 24 -44 32 -61 8 -17 22 -36 30 -44 9 -7 16 -17 16
-22 0 -23 105 -107 181 -146 27 -13 49 -27 49 -32 0 -4 26 -11 58 -15 31 -4
66 -12 77 -17 18 -10 90 -12 180 -4 46 4 68 9 110 27 17 7 35 11 42 10 16 -2
79 39 127 83 21 20 40 36 42 36 14 0 70 71 96 122 17 35 35 66 40 69 4 3 14
42 20 87 7 45 16 82 20 82 13 0 -3 202 -18 232 -8 16 -12 28 -9 28 4 0 -3 14
-15 31 -12 16 -19 33 -16 36 7 8 -54 90 -124 168 -26 29 -96 75 -114 75 -9 0
-16 3 -16 8 0 11 -50 30 -100 38 -25 4 -50 11 -57 16 -7 5 -56 11 -110 13 -78
3 -108 0 -148 -16z"/>
<path d="M3485 2420 c-4 -6 -24 -22 -45 -35 -21 -13 -41 -33 -45 -45 -3 -11
-13 -20 -20 -20 -21 0 -44 -51 -51 -114 -4 -31 -11 -59 -15 -62 -5 -3 -2 -21
6 -40 7 -18 12 -34 10 -34 -10 0 43 -98 65 -121 33 -34 75 -59 98 -59 10 0 23
-5 29 -11 13 -13 120 -19 148 -8 11 4 32 10 47 13 15 4 52 31 82 60 53 53 76
99 76 153 0 12 5 25 11 28 31 19 -46 223 -90 239 -29 11 -76 39 -82 49 -10 14
-216 21 -224 7z"/>
<path d="M4215 1823 c-40 -35 -49 -51 -55 -88 -5 -31 -3 -54 7 -72 7 -14 11
-28 9 -31 -10 -10 15 -41 45 -56 17 -9 59 -18 93 -21 60 -6 62 -5 103 33 33
31 43 49 51 89 6 37 5 57 -4 74 -7 13 -10 27 -7 32 7 11 -27 47 -44 47 -7 0
-13 5 -13 10 0 6 -11 10 -24 10 -14 0 -28 4 -31 10 -3 5 -23 9 -44 8 -30 -1
-49 -11 -86 -45z"/>
</g>
</svg>
