<svg id="svg" xmlns="http://www.w3.org/2000/svg" xmlns:xlink="http://www.w3.org/1999/xlink" width="400" height="400" viewBox="0, 0, 400,400"><g id="svgg"><path id="path0" d="M218.408 13.509 C 212.416 15.596,209.477 22.097,212.130 27.393 C 213.098 29.326,216.669 33.333,217.424 33.333 C 217.618 33.333,217.864 33.330,217.970 33.326 C 218.076 33.321,218.524 33.655,218.966 34.066 C 219.408 34.478,219.995 34.815,220.271 34.815 C 220.546 34.815,221.123 35.142,221.553 35.543 C 221.983 35.943,222.476 36.183,222.649 36.076 C 222.822 35.970,222.963 36.032,222.963 36.215 C 222.963 36.508,223.902 37.067,225.000 37.429 C 225.204 37.496,225.693 37.852,226.088 38.220 C 226.483 38.588,227.108 38.889,227.477 38.889 C 227.846 38.889,228.148 39.029,228.148 39.200 C 228.148 39.561,231.900 41.690,232.315 41.565 C 232.468 41.519,232.593 41.628,232.593 41.807 C 232.593 41.986,233.134 42.355,233.796 42.627 C 234.458 42.898,235.323 43.419,235.718 43.783 C 236.113 44.147,236.662 44.444,236.937 44.444 C 237.213 44.444,237.790 44.772,238.220 45.172 C 238.649 45.573,239.121 45.826,239.267 45.736 C 239.413 45.646,240.003 45.975,240.577 46.468 C 241.151 46.962,241.756 47.282,241.921 47.179 C 242.087 47.077,242.222 47.159,242.222 47.362 C 242.222 47.564,242.806 47.941,243.519 48.199 C 244.231 48.456,244.815 48.790,244.815 48.939 C 244.815 49.089,245.398 49.422,246.111 49.680 C 246.824 49.938,247.407 50.269,247.407 50.416 C 247.407 50.563,247.991 50.876,248.704 51.111 C 249.417 51.346,250.000 51.681,250.000 51.856 C 250.000 52.030,250.362 52.287,250.805 52.428 C 251.248 52.568,251.946 52.996,252.356 53.379 C 252.767 53.761,253.405 54.074,253.774 54.074 C 254.143 54.074,254.444 54.221,254.444 54.400 C 254.444 54.579,254.986 54.946,255.648 55.217 C 256.310 55.488,257.072 55.925,257.341 56.188 C 257.610 56.451,258.043 56.667,258.303 56.667 C 258.563 56.667,259.160 57.000,259.630 57.407 C 260.099 57.815,260.708 58.148,260.983 58.148 C 261.257 58.148,261.481 58.304,261.481 58.495 C 261.481 58.685,262.065 59.052,262.778 59.310 C 263.491 59.567,264.074 59.891,264.074 60.029 C 264.074 60.168,264.616 60.502,265.278 60.773 C 265.940 61.043,266.702 61.480,266.971 61.744 C 267.240 62.007,267.698 62.222,267.989 62.222 C 268.280 62.222,268.519 62.399,268.519 62.614 C 268.519 62.830,268.685 62.904,268.889 62.778 C 269.093 62.652,269.259 62.722,269.259 62.934 C 269.259 63.146,269.676 63.424,270.185 63.552 C 270.694 63.679,271.111 63.912,271.111 64.069 C 271.111 64.226,271.653 64.576,272.315 64.847 C 272.977 65.118,273.739 65.554,274.008 65.818 C 274.277 66.081,274.710 66.296,274.970 66.296 C 275.230 66.296,275.827 66.630,276.296 67.037 C 276.766 67.444,277.375 67.778,277.649 67.778 C 277.924 67.778,278.148 67.934,278.148 68.124 C 278.148 68.315,278.731 68.682,279.444 68.939 C 280.157 69.197,280.741 69.521,280.741 69.659 C 280.741 69.797,281.282 70.132,281.944 70.402 C 282.606 70.673,283.368 71.110,283.638 71.373 C 283.907 71.636,284.340 71.852,284.599 71.852 C 284.859 71.852,285.456 72.185,285.926 72.593 C 286.396 73.000,287.005 73.333,287.279 73.333 C 287.553 73.333,287.778 73.489,287.778 73.680 C 287.778 73.870,288.361 74.237,289.074 74.495 C 289.787 74.753,290.370 75.077,290.370 75.215 C 290.370 75.353,290.912 75.685,291.574 75.953 C 292.236 76.220,292.861 76.555,292.963 76.697 C 293.065 76.838,293.731 77.219,294.444 77.544 C 295.892 78.202,296.942 78.846,297.695 79.536 C 297.973 79.791,298.605 80.101,299.100 80.225 C 299.595 80.349,300.000 80.586,300.000 80.752 C 300.000 80.918,300.583 81.246,301.296 81.481 C 302.009 81.717,302.593 82.047,302.593 82.215 C 302.593 82.383,303.069 82.686,303.652 82.889 C 304.235 83.093,305.443 83.724,306.337 84.292 C 307.231 84.861,308.880 85.816,310.000 86.415 C 311.120 87.014,312.120 87.611,312.222 87.741 C 312.324 87.871,312.857 88.176,313.407 88.417 C 313.957 88.658,315.124 89.312,316.000 89.869 C 316.876 90.427,318.343 91.284,319.259 91.774 C 320.176 92.264,321.384 92.935,321.944 93.264 L 322.963 93.863 322.963 156.191 C 322.963 203.432,323.068 218.519,323.395 218.519 C 323.633 218.519,323.731 218.615,323.614 218.732 C 323.380 218.966,324.656 222.046,325.324 222.861 C 328.560 226.808,333.620 228.105,337.709 226.036 C 339.637 225.061,340.144 224.644,342.407 222.180 L 343.519 220.970 343.519 155.393 C 343.519 83.401,343.667 88.007,341.206 83.891 C 339.932 81.762,339.643 81.378,337.963 79.592 C 336.862 78.422,338.587 79.433,281.481 46.473 C 252.250 29.601,228.278 15.659,228.210 15.491 C 228.142 15.323,227.850 15.185,227.562 15.185 C 227.273 15.185,227.037 15.037,227.037 14.855 C 227.037 13.622,220.854 12.657,218.408 13.509 M187.963 29.575 C 186.944 29.923,177.861 34.973,167.778 40.796 C 157.694 46.619,133.778 60.431,114.630 71.490 C 95.481 82.549,78.815 92.090,77.593 92.692 C 67.796 97.520,70.943 111.425,81.650 110.617 C 85.349 110.338,86.092 110.169,87.281 109.332 C 87.860 108.925,91.167 106.968,94.630 104.983 C 98.093 102.997,104.009 99.582,107.778 97.394 C 140.495 78.392,193.039 48.148,193.333 48.148 C 193.628 48.148,246.171 78.392,278.889 97.394 C 282.657 99.582,288.574 102.997,292.037 104.983 C 295.500 106.968,298.823 108.937,299.422 109.359 C 301.970 111.154,307.896 110.619,310.908 108.322 C 313.660 106.223,315.065 100.398,313.533 97.436 C 313.236 96.861,313.095 96.288,313.219 96.163 C 313.574 95.809,311.119 93.769,309.074 92.719 C 308.056 92.197,283.222 77.919,253.889 60.990 C 224.556 44.062,199.655 29.914,198.554 29.550 C 195.924 28.682,190.536 28.694,187.963 29.575 M191.481 56.109 C 190.769 56.364,189.126 57.218,187.831 58.008 C 186.537 58.798,185.038 59.681,184.501 59.971 C 183.964 60.260,183.303 60.718,183.032 60.989 C 182.761 61.260,182.327 61.481,182.067 61.481 C 181.807 61.481,181.210 61.815,180.741 62.222 C 180.271 62.630,179.674 62.963,179.414 62.963 C 179.154 62.963,178.716 63.171,178.439 63.426 C 177.785 64.028,176.009 65.060,174.722 65.584 C 174.162 65.812,173.704 66.136,173.704 66.304 C 173.704 66.472,173.120 66.802,172.407 67.037 C 171.694 67.272,171.111 67.601,171.111 67.766 C 171.111 67.932,170.706 68.169,170.211 68.294 C 169.716 68.418,169.085 68.728,168.809 68.982 C 168.155 69.584,166.379 70.615,165.093 71.139 C 164.532 71.367,164.074 71.691,164.074 71.859 C 164.074 72.027,163.491 72.357,162.778 72.593 C 162.065 72.828,161.481 73.156,161.481 73.322 C 161.481 73.488,161.076 73.725,160.581 73.849 C 160.086 73.974,159.455 74.283,159.179 74.538 C 158.526 75.140,156.749 76.171,155.463 76.695 C 154.903 76.923,154.444 77.242,154.444 77.403 C 154.444 77.565,154.039 77.799,153.544 77.923 C 153.049 78.048,152.424 78.359,152.156 78.616 C 151.887 78.873,151.250 79.297,150.741 79.559 C 148.490 80.719,147.566 81.270,147.106 81.730 C 146.835 82.001,146.401 82.222,146.141 82.222 C 145.881 82.222,145.285 82.556,144.815 82.963 C 144.345 83.370,143.748 83.704,143.488 83.704 C 143.228 83.704,142.790 83.912,142.513 84.167 C 141.859 84.769,140.083 85.800,138.796 86.324 C 138.236 86.552,137.778 86.877,137.778 87.045 C 137.778 87.213,137.194 87.542,136.481 87.778 C 135.769 88.013,135.185 88.341,135.185 88.507 C 135.185 88.673,134.780 88.910,134.285 89.034 C 133.790 89.159,133.165 89.470,132.896 89.727 C 132.627 89.984,131.991 90.408,131.481 90.671 C 129.230 91.830,128.306 92.381,127.847 92.841 C 127.576 93.112,127.128 93.333,126.852 93.333 C 126.575 93.333,126.129 93.544,125.860 93.801 C 125.591 94.058,124.954 94.478,124.444 94.734 C 123.935 94.990,122.852 95.607,122.037 96.104 C 121.222 96.601,120.097 97.197,119.537 97.429 C 118.977 97.661,118.519 97.983,118.519 98.144 C 118.519 98.306,118.114 98.540,117.618 98.664 C 117.123 98.788,116.498 99.100,116.230 99.357 C 115.961 99.613,115.324 100.038,114.815 100.300 C 112.564 101.459,111.640 102.011,111.180 102.471 C 110.909 102.741,110.475 102.963,110.215 102.963 C 109.956 102.963,109.359 103.296,108.889 103.704 C 108.419 104.111,107.822 104.444,107.562 104.444 C 107.303 104.444,106.864 104.653,106.587 104.907 C 105.933 105.510,104.157 106.541,102.870 107.065 C 102.310 107.293,101.852 107.617,101.852 107.785 C 101.852 107.953,101.269 108.283,100.556 108.519 C 99.843 108.754,99.259 109.082,99.259 109.248 C 99.259 109.414,98.854 109.651,98.359 109.775 C 97.864 109.899,97.239 110.211,96.970 110.468 C 96.701 110.725,96.065 111.149,95.556 111.411 C 93.304 112.570,92.381 113.122,91.921 113.582 C 91.650 113.852,91.202 114.074,90.926 114.074 C 90.649 114.074,90.203 114.284,89.934 114.541 C 89.665 114.798,89.028 115.218,88.519 115.475 C 88.009 115.731,86.926 116.347,86.111 116.845 C 85.296 117.342,84.171 117.938,83.611 118.170 C 83.051 118.401,82.593 118.730,82.593 118.900 C 82.593 119.070,82.221 119.327,81.766 119.472 C 78.743 120.431,73.613 126.704,73.079 130.095 C 72.980 130.718,72.752 131.617,72.572 132.091 C 72.387 132.579,72.231 160.302,72.213 195.829 C 72.196 230.410,72.129 259.233,72.065 259.880 C 71.148 269.050,84.783 272.880,89.795 264.862 C 91.897 261.499,91.799 264.901,91.730 198.029 C 91.661 130.872,91.518 135.657,93.611 135.019 C 94.069 134.879,94.444 134.622,94.444 134.448 C 94.444 134.274,95.028 133.939,95.741 133.704 C 96.454 133.468,97.037 133.140,97.037 132.974 C 97.037 132.809,97.442 132.571,97.937 132.447 C 98.432 132.323,99.057 132.011,99.326 131.754 C 99.595 131.498,100.231 131.073,100.741 130.811 C 102.951 129.673,103.901 129.129,104.074 128.903 C 104.176 128.770,104.801 128.443,105.463 128.175 C 106.125 127.907,106.667 127.560,106.667 127.403 C 106.667 127.246,107.072 127.016,107.567 126.891 C 108.062 126.767,108.687 126.456,108.956 126.199 C 109.224 125.942,109.861 125.518,110.370 125.255 C 112.580 124.117,113.531 123.574,113.704 123.348 C 113.806 123.215,114.431 122.887,115.093 122.619 C 115.755 122.351,116.296 122.019,116.296 121.881 C 116.296 121.743,116.880 121.419,117.593 121.162 C 118.306 120.904,118.889 120.537,118.889 120.346 C 118.889 120.156,119.127 120.000,119.418 120.000 C 119.709 120.000,120.167 119.785,120.437 119.521 C 120.706 119.258,121.468 118.821,122.130 118.551 C 122.792 118.280,123.333 117.930,123.333 117.773 C 123.333 117.616,123.738 117.386,124.233 117.262 C 124.728 117.138,125.355 116.828,125.625 116.574 C 125.896 116.319,127.074 115.611,128.243 115.000 C 129.411 114.389,130.368 113.797,130.369 113.686 C 130.370 113.574,130.954 113.271,131.667 113.013 C 132.380 112.756,132.963 112.407,132.963 112.238 C 132.963 112.070,133.368 111.831,133.863 111.706 C 134.358 111.582,134.984 111.272,135.255 111.018 C 135.526 110.764,136.703 110.056,137.872 109.444 C 139.041 108.833,139.998 108.226,139.999 108.096 C 139.999 107.965,140.405 107.756,140.900 107.632 C 141.395 107.508,142.026 107.198,142.302 106.944 C 142.578 106.690,143.756 105.987,144.920 105.383 C 146.084 104.779,147.037 104.188,147.037 104.069 C 147.037 103.950,147.620 103.642,148.333 103.384 C 149.046 103.126,149.630 102.759,149.630 102.569 C 149.630 102.378,149.822 102.222,150.056 102.222 C 150.498 102.222,156.340 98.963,156.667 98.534 C 156.769 98.401,157.394 98.072,158.056 97.804 C 158.718 97.537,159.259 97.171,159.259 96.992 C 159.259 96.813,159.451 96.667,159.686 96.667 C 160.105 96.667,165.935 93.433,166.296 93.000 C 166.398 92.878,167.606 92.194,168.981 91.481 C 170.356 90.769,171.481 90.060,171.481 89.907 C 171.481 89.755,171.656 89.630,171.870 89.630 C 172.523 89.630,199.577 73.919,199.405 73.640 C 199.316 73.496,199.470 73.244,199.746 73.078 C 202.430 71.473,203.715 65.104,202.009 61.859 C 200.555 59.094,197.280 56.648,194.630 56.350 C 194.019 56.281,193.352 56.095,193.148 55.936 C 192.944 55.777,192.194 55.855,191.481 56.109 M355.823 93.383 C 353.972 93.657,351.338 94.994,350.340 96.165 C 349.535 97.110,347.781 100.222,347.493 101.218 C 347.362 101.669,347.243 130.104,347.229 164.407 L 347.202 226.778 335.360 233.618 C 320.307 242.313,304.887 251.201,298.704 254.744 C 292.329 258.398,291.974 258.603,289.795 259.896 C 288.766 260.506,287.183 261.422,286.277 261.932 C 285.371 262.441,284.046 263.195,283.333 263.606 C 282.620 264.017,280.954 264.978,279.630 265.741 C 278.306 266.504,276.681 267.441,276.019 267.823 C 275.356 268.206,274.273 268.831,273.611 269.214 C 272.949 269.596,271.324 270.534,270.000 271.296 C 268.676 272.059,267.051 272.996,266.389 273.379 C 265.727 273.761,264.644 274.387,263.981 274.770 C 263.319 275.152,261.694 276.089,260.370 276.852 C 259.046 277.615,257.421 278.552,256.759 278.934 C 256.097 279.317,255.014 279.943,254.352 280.325 C 253.690 280.708,252.065 281.644,250.741 282.407 C 249.417 283.170,247.667 284.188,246.852 284.669 C 246.037 285.151,244.079 286.255,242.500 287.124 C 240.922 287.993,239.630 288.852,239.630 289.033 C 239.630 289.214,239.385 289.548,239.086 289.774 C 237.981 290.611,235.926 295.187,235.926 296.812 C 235.926 301.755,239.608 306.325,244.270 307.165 C 244.875 307.274,245.748 307.448,246.210 307.551 C 247.105 307.750,250.370 306.703,250.370 306.216 C 250.370 306.057,250.567 305.926,250.806 305.926 C 251.046 305.926,252.088 305.355,253.121 304.657 C 254.154 303.960,278.750 289.693,307.778 272.953 C 343.677 252.251,361.065 242.026,362.148 240.981 C 363.544 239.634,366.206 235.523,366.464 234.316 C 366.514 234.081,366.649 233.639,366.764 233.333 C 366.879 233.028,367.066 232.238,367.180 231.578 C 367.555 229.406,367.472 100.587,367.095 99.616 C 365.438 95.350,360.601 92.675,355.823 93.383 M106.544 135.850 C 103.356 136.249,98.523 140.588,98.511 143.062 C 98.506 143.924,98.510 173.380,98.519 208.519 C 98.536 275.790,98.521 275.160,100.118 276.982 C 100.412 277.318,100.767 277.968,100.907 278.426 C 101.047 278.884,101.316 279.259,101.506 279.259 C 101.696 279.259,101.852 279.514,101.852 279.826 C 101.852 280.809,105.604 284.079,109.071 286.116 C 110.906 287.194,135.403 301.352,163.510 317.578 C 191.616 333.803,214.738 347.278,214.893 347.521 C 215.047 347.764,215.179 347.796,215.185 347.593 C 215.191 347.387,215.318 347.410,215.469 347.642 C 216.356 349.013,221.658 349.453,223.704 348.326 C 224.213 348.046,225.038 347.632,225.538 347.407 C 226.370 347.033,229.221 344.240,229.288 343.735 C 229.337 343.360,229.570 342.447,229.909 341.296 C 231.077 337.344,228.418 332.067,223.942 329.451 C 221.514 328.032,216.917 325.399,216.302 325.075 C 215.993 324.912,215.135 324.412,214.394 323.964 C 213.653 323.515,211.736 322.399,210.135 321.483 C 208.533 320.567,206.943 319.650,206.601 319.446 C 205.766 318.946,201.244 316.347,199.630 315.439 C 198.917 315.038,197.891 314.442,197.351 314.114 C 196.286 313.468,192.001 311.005,190.143 309.971 C 187.661 308.589,187.203 308.319,186.667 307.922 C 186.361 307.696,185.194 307.012,184.074 306.403 C 182.954 305.793,181.435 304.952,180.699 304.534 C 179.963 304.116,178.963 303.549,178.477 303.276 C 177.990 303.002,177.343 302.593,177.037 302.367 C 176.731 302.141,175.565 301.457,174.444 300.847 C 173.324 300.238,171.805 299.397,171.069 298.978 C 170.333 298.560,169.333 297.994,168.847 297.720 C 168.361 297.446,167.713 297.037,167.407 296.811 C 167.102 296.585,165.935 295.901,164.815 295.292 C 162.526 294.046,160.355 292.812,158.704 291.819 C 158.093 291.452,157.176 290.919,156.667 290.636 C 156.157 290.353,155.116 289.760,154.352 289.320 C 153.588 288.879,152.338 288.162,151.574 287.725 C 150.810 287.289,149.685 286.631,149.074 286.264 C 148.463 285.896,147.546 285.364,147.037 285.080 C 146.528 284.797,145.444 284.180,144.630 283.710 C 143.815 283.239,142.231 282.355,141.111 281.745 C 139.991 281.136,138.824 280.447,138.519 280.214 C 138.213 279.982,137.213 279.388,136.296 278.894 C 135.380 278.401,130.963 275.876,126.481 273.283 L 118.333 268.569 118.362 206.321 C 118.378 172.085,118.253 144.074,118.084 144.074 C 117.916 144.074,117.778 143.831,117.778 143.535 C 117.778 141.448,111.516 134.525,111.476 136.567 C 111.473 136.723,111.343 136.652,111.188 136.408 C 110.890 135.939,108.307 135.629,106.544 135.850 M354.417 250.742 C 353.486 251.055,352.319 251.563,351.825 251.872 C 351.330 252.182,350.509 252.639,350.000 252.888 C 349.491 253.137,348.574 253.667,347.963 254.066 C 347.352 254.465,346.352 255.048,345.741 255.361 C 345.130 255.675,343.963 256.338,343.148 256.835 C 342.333 257.333,341.333 257.912,340.926 258.123 C 340.519 258.333,339.519 258.921,338.704 259.429 C 337.889 259.937,336.556 260.723,335.741 261.176 C 333.421 262.465,332.449 263.026,329.362 264.854 C 327.778 265.792,325.731 266.979,324.815 267.491 C 323.898 268.003,321.898 269.165,320.370 270.071 C 318.843 270.978,316.676 272.231,315.556 272.855 C 313.620 273.933,278.686 294.136,256.515 306.999 C 250.495 310.492,245.948 312.908,245.627 312.785 C 245.325 312.669,241.976 310.768,238.187 308.559 C 234.397 306.351,225.130 300.990,217.593 296.647 C 210.056 292.304,203.833 288.615,203.765 288.449 C 203.698 288.284,203.467 288.148,203.253 288.148 C 202.876 288.148,194.448 283.396,194.074 282.972 C 193.972 282.857,193.472 282.559,192.963 282.310 C 192.454 282.061,191.787 281.697,191.481 281.501 C 191.176 281.305,189.535 280.345,187.835 279.369 C 186.134 278.392,184.134 277.226,183.390 276.778 C 182.646 276.330,181.670 275.796,181.222 275.591 C 180.773 275.385,179.690 274.754,178.814 274.187 C 177.939 273.620,176.806 272.945,176.296 272.686 C 175.787 272.428,174.704 271.809,173.889 271.312 C 173.074 270.815,172.041 270.240,171.592 270.035 C 171.144 269.830,170.060 269.198,169.185 268.631 C 168.309 268.065,167.176 267.390,166.667 267.131 C 166.157 266.872,165.120 266.287,164.361 265.830 C 163.602 265.374,162.102 264.523,161.027 263.940 C 159.953 263.357,158.824 262.681,158.519 262.438 C 158.213 262.194,157.546 261.793,157.037 261.546 C 156.528 261.299,155.490 260.725,154.731 260.270 C 153.972 259.816,152.472 258.967,151.398 258.384 C 150.323 257.802,149.181 257.093,148.860 256.810 C 148.538 256.528,148.102 256.296,147.891 256.296 C 147.680 256.296,147.110 255.985,146.624 255.605 C 145.833 254.986,143.673 253.741,140.817 252.258 C 140.266 251.972,139.709 251.576,139.579 251.378 C 139.006 250.504,133.342 250.432,130.829 251.267 C 124.820 253.263,122.360 264.114,127.154 267.478 C 127.802 267.934,128.389 268.439,128.458 268.600 C 128.526 268.761,128.734 268.799,128.921 268.684 C 129.107 268.569,129.259 268.640,129.259 268.842 C 129.259 269.044,129.634 269.326,130.093 269.468 C 131.054 269.766,130.400 269.391,192.344 305.155 C 218.179 320.071,239.595 332.332,239.936 332.401 C 240.277 332.470,241.010 332.703,241.565 332.917 C 242.860 333.419,247.791 333.402,250.185 332.888 C 252.872 332.312,251.072 333.322,308.274 300.290 C 337.232 283.567,361.218 269.808,361.574 269.714 C 361.931 269.620,362.222 269.386,362.222 269.194 C 362.222 269.002,362.389 268.948,362.593 269.074 C 362.796 269.200,362.963 269.126,362.963 268.911 C 362.963 268.695,363.201 268.519,363.492 268.519 C 365.599 268.519,368.055 263.857,367.980 260.000 C 367.842 252.801,361.395 248.400,354.417 250.742 " stroke="none" fill="#000000" fill-rule="evenodd"></path></g></svg>