<?xml version="1.0" standalone="no"?>
<!DOCTYPE svg PUBLIC "-//W3C//DTD SVG 20010904//EN"
 "http://www.w3.org/TR/2001/REC-SVG-20010904/DTD/svg10.dtd">
<svg version="1.0" xmlns="http://www.w3.org/2000/svg"
 width="1280.000000pt" height="280.000000pt" viewBox="0 0 1280.000000 280.000000"
 preserveAspectRatio="xMidYMid meet">
<metadata>
Created by potrace 1.16, written by Peter Selinger 2001-2019
</metadata>
<g transform="translate(0.000000,280.000000) scale(0.100000,-0.100000)"
fill="#9107ed" stroke="none">
<path d="M737 2726 c-271 -140 -653 -372 -699 -423 -12 -13 -21 -49 -28 -114
-12 -120 -13 -635 0 -759 9 -93 10 -96 49 -130 74 -67 502 -309 701 -397 135
-60 147 -58 391 64 112 56 321 168 464 249 278 157 654 351 721 373 39 13 46
11 130 -23 49 -20 169 -82 267 -138 l177 -102 0 -341 0 -341 -177 -101 c-174
-99 -289 -154 -350 -167 -67 -15 -381 140 -530 261 -54 43 -64 79 -72 255 l-6
138 -117 -70 c-64 -39 -128 -84 -142 -101 -24 -28 -26 -38 -26 -123 0 -51 3
-133 6 -183 l7 -89 201 -114 c374 -212 431 -243 528 -286 154 -69 149 -69 329
23 274 141 635 363 664 407 51 78 57 818 8 952 -16 44 -27 55 -109 109 -139
92 -742 425 -770 425 -6 0 -231 -124 -500 -276 -269 -153 -590 -329 -714 -392
-205 -104 -228 -114 -267 -109 -125 14 -487 248 -538 347 -22 43 -37 168 -38
309 -1 174 13 210 117 309 135 128 332 229 470 239 69 5 77 4 157 -34 175 -82
358 -212 398 -283 14 -26 27 -76 36 -145 13 -103 25 -135 49 -135 16 0 153 66
188 92 63 45 82 144 58 313 -12 84 -4 77 -235 230 -285 189 -580 355 -630 355
-14 0 -90 -33 -168 -74z"/>
<path d="M6850 1830 l0 -970 170 0 170 0 0 970 0 970 -170 0 -170 0 0 -970z"/>
<path d="M4595 1965 c-75 -14 -116 -28 -208 -69 -72 -33 -104 -33 -128 -2 -25
31 -92 46 -209 46 l-90 0 0 -810 0 -810 170 0 170 0 0 305 c0 168 2 305 5 305
3 0 42 -18 87 -41 134 -68 257 -84 406 -53 309 63 490 324 442 638 -56 368
-303 555 -645 491z m115 -312 c107 -52 163 -142 163 -258 0 -116 -59 -214
-160 -265 -66 -34 -188 -35 -249 -3 -63 34 -97 66 -129 125 -26 46 -30 63 -30
133 0 97 23 154 85 214 83 80 218 103 320 54z"/>
<path d="M5920 1968 c-196 -18 -399 -147 -475 -302 -46 -93 -58 -166 -52 -301
4 -84 11 -126 30 -179 88 -239 315 -378 592 -362 368 20 600 244 599 576 -1
372 -287 606 -694 568z m206 -312 c80 -37 144 -153 144 -261 0 -108 -67 -216
-160 -258 -63 -29 -162 -28 -224 3 -115 55 -173 245 -116 378 26 60 100 133
152 149 61 20 148 15 204 -11z"/>
<path d="M9104 1965 c-105 -19 -204 -74 -295 -165 -119 -118 -164 -236 -163
-425 0 -95 4 -119 27 -179 93 -236 333 -390 579 -372 97 7 171 33 275 96 45
28 84 50 87 50 10 0 7 -76 -5 -129 -28 -131 -167 -223 -336 -222 -85 0 -150
20 -217 64 -67 44 -93 52 -122 37 -19 -11 -146 -159 -167 -197 -9 -15 107
-107 175 -137 89 -41 198 -59 353 -59 174 0 259 17 381 78 177 87 235 182 264
430 6 50 13 319 17 599 l6 509 -130 -5 c-106 -4 -138 -9 -175 -26 -58 -29 -67
-28 -185 13 -96 33 -205 55 -268 54 -16 0 -62 -7 -101 -14z m370 -320 c69 -35
111 -82 131 -149 34 -112 9 -226 -64 -296 -186 -180 -530 -56 -531 191 0 104
44 185 130 238 69 42 104 51 195 47 64 -2 92 -8 139 -31z"/>
<path d="M10700 1974 c-227 -44 -393 -151 -459 -296 -36 -76 -61 -194 -61
-280 1 -264 174 -486 430 -553 92 -24 252 -22 354 4 290 76 436 259 436 546 0
283 -153 489 -416 560 -59 16 -237 28 -284 19z m195 -318 c53 -24 112 -83 141
-138 27 -51 30 -156 8 -219 -39 -108 -137 -182 -243 -183 -75 0 -126 19 -177
66 -113 104 -118 304 -11 417 74 78 188 101 282 57z"/>
<path d="M12260 1962 c-73 -25 -92 -35 -180 -104 -42 -32 -81 -58 -88 -58 -7
0 -23 24 -36 53 -31 70 -53 80 -198 85 l-118 4 0 -541 0 -541 164 0 164 0 6
118 c12 251 26 409 41 467 24 94 64 165 113 200 38 26 52 30 112 30 59 0 72
-3 96 -25 68 -63 84 -164 84 -526 l0 -264 171 0 170 0 -4 433 c-2 305 -7 443
-15 469 -20 58 -104 143 -179 180 -57 28 -78 33 -157 35 -68 2 -105 -2 -146
-15z"/>
<path d="M7393 1931 c-24 -4 -45 -9 -47 -12 -8 -7 88 -209 301 -634 l190 -380
-93 -205 c-112 -247 -157 -360 -149 -368 4 -4 79 -7 167 -7 l160 0 242 550
c293 664 415 954 423 998 4 29 1 35 -24 46 -40 19 -153 26 -196 12 -65 -22
-98 -77 -257 -429 l-87 -192 -145 312 -146 313 -148 1 c-82 1 -168 -1 -191 -5z"/>
</g>
</svg>
